<svg width="64" height="52" viewBox="0 0 64 52" fill="none" xmlns="http://www.w3.org/2000/svg">
<path fill-rule="evenodd" clip-rule="evenodd" d="M14.0159 15.1017L16.1844 18.8505L18.3529 15.1017L22.1017 12.9332L18.3529 10.7649L16.1844 7.01611L14.0159 10.7649L10.2637 12.9332L14.0159 15.1017Z" fill="#E95440"/>
<path fill-rule="evenodd" clip-rule="evenodd" d="M27.6826 9.40404L30.0707 13.5319L32.4552 9.40404L36.5831 7.01942L32.4552 4.63129L30.0707 0.503418L27.6826 4.63129L23.5547 7.01942L27.6826 9.40404Z" fill="#E95440"/>
<path fill-rule="evenodd" clip-rule="evenodd" d="M6.23145 34.0827H18.5372V25.3203H14.1152C11.7271 25.3203 10.2921 26.0218 9.14407 28.2967L6.23145 34.0827Z" fill="#E95440"/>
<path fill-rule="evenodd" clip-rule="evenodd" d="M28.916 25.3203H39.2978V34.0827H28.916V25.3203Z" fill="#E95440"/>
<path d="M60.0775 34.0491C58.3009 33.2761 55.9288 32.8327 53.5695 32.8327H52.4721L46.9786 26.3607C45.1674 24.2282 43.9869 24.1176 41.4893 24.0706C41.4814 24.0704 41.4736 24.0703 41.4658 24.0703H14.1155C11.1051 24.0703 9.34163 25.1316 8.02788 27.7346L5.46163 32.8327H2.398C1.07575 32.8327 0 33.9084 0 35.2307V44.2623C0 45.5846 1.07575 46.6603 2.398 46.6603H9.125C9.57913 49.4004 11.9644 51.4968 14.8313 51.4968C17.6981 51.4968 20.0833 49.4003 20.5375 46.6603H42.5698C43.0239 49.4004 45.4091 51.4968 48.276 51.4968C51.1429 51.4968 53.528 49.4003 53.9823 46.6603H59.9261C62.1725 46.6603 64.0001 44.8344 64.0001 42.5899V39.1459C64 37.5993 63.3195 35.4597 60.0775 34.0491ZM10.2603 28.8597C11.135 27.1266 12.0718 26.5702 14.1155 26.5702H41.4538C43.5398 26.6094 43.9181 26.6191 45.073 27.9787L49.193 32.8327H8.26038L10.2603 28.8597ZM14.8313 48.9969C13.0198 48.9969 11.5459 47.5231 11.5459 45.7116C11.5459 43.9001 13.0198 42.4262 14.8313 42.4262C16.6428 42.4262 18.1166 43.9001 18.1166 45.7116C18.1166 47.5231 16.6428 48.9969 14.8313 48.9969ZM48.2759 48.9969C46.4644 48.9969 44.9905 47.5231 44.9905 45.7116C44.9905 43.9001 46.4644 42.4262 48.2759 42.4262C50.0874 42.4262 51.5613 43.9001 51.5613 45.7116C51.5613 47.5231 50.0874 48.9969 48.2759 48.9969ZM59.926 44.1604H53.8483C53.1684 41.7216 50.9285 39.9263 48.2759 39.9263C45.6233 39.9263 43.3833 41.7216 42.7035 44.1604H20.4036C19.7238 41.7216 17.4839 39.9263 14.8313 39.9263C12.1786 39.9263 9.93863 41.7216 9.25888 44.1604H2.5V40.8602H4.63738C5.32775 40.8602 5.88738 40.3006 5.88738 39.6102C5.88738 38.9198 5.32775 38.3602 4.63738 38.3602H2.5V35.3327H53.5695C56.7574 35.3327 61.5 36.3483 61.5 39.1459V39.2848H59.182C58.4916 39.2848 57.932 39.8444 57.932 40.5348C57.932 41.2252 58.4916 41.7848 59.182 41.7848H61.5V42.5899C61.5 43.4559 60.794 44.1604 59.926 44.1604Z" fill="#024273"/>
<path d="M31.4029 38.4985H25.8896C25.1993 38.4985 24.6396 39.0582 24.6396 39.7485C24.6396 40.4389 25.1993 40.9985 25.8896 40.9985H31.4029C32.0933 40.9985 32.6529 40.4389 32.6529 39.7485C32.6529 39.0582 32.0933 38.4985 31.4029 38.4985Z" fill="#024273"/>
</svg>
