<svg width="24" height="24" viewBox="0 0 24 24" fill="none" xmlns="http://www.w3.org/2000/svg">
<path d="M21.1763 12.0002C21.1763 6.97312 17.0917 2.82422 12.0002 2.82422C6.93619 2.82422 2.82422 6.9457 2.82422 12.0002C2.82422 16.5893 6.22702 20.4581 10.7231 21.087C10.7279 21.0878 10.7321 21.0898 10.7652 21.0929C16.2898 21.8392 21.1763 17.5293 21.1763 12.0002ZM20.213 12.6517L16.2055 12.0002L20.213 11.3487C20.246 11.7688 20.2486 12.1996 20.213 12.6517ZM12.6517 3.78745L12.0002 7.7948L11.3487 3.78745C11.7688 3.75445 12.1996 3.75187 12.6517 3.78745ZM3.78745 11.3487L7.79494 12.0002L3.78745 12.6517C3.75441 12.2317 3.75192 11.8008 3.78745 11.3487ZM11.3487 20.213L12.0002 16.2057L12.6517 20.213C12.2154 20.2473 11.7854 20.2473 11.3487 20.213ZM15.3942 19.5068C15.1903 18.2535 14.7277 15.4094 14.7017 15.2491C14.669 15.0222 14.4737 14.8478 14.2378 14.8478C13.9789 14.8478 13.769 15.0577 13.769 15.3165C13.769 15.3538 13.7691 15.3555 14.5003 19.8505C14.2008 19.9461 13.894 20.0249 13.581 20.086L12.9007 15.9016C12.8591 15.6461 12.6184 15.4726 12.3627 15.5142C12.1918 15.542 12.0579 15.6592 12.0002 15.8101C11.9425 15.6592 11.8088 15.5419 11.6378 15.5142C11.3821 15.4723 11.1414 15.646 11.0998 15.9016L10.4195 20.086C10.1064 20.0249 9.79959 19.9461 9.5002 19.8505C10.2314 15.3555 10.2315 15.3538 10.2315 15.3165C10.2315 15.0577 10.0216 14.8478 9.7627 14.8478C9.52673 14.8478 9.3315 15.0222 9.29878 15.2491C9.27277 15.4094 8.81016 18.2535 8.6063 19.5068C6.78731 18.6811 5.31938 17.2132 4.49372 15.3942C5.7473 15.1903 8.59233 14.7276 8.75152 14.7017C8.97839 14.669 9.15272 14.4738 9.15272 14.2379C9.15272 13.979 8.94286 13.7691 8.68397 13.7691C8.64666 13.7691 8.64502 13.7692 4.14998 14.5004C4.05441 14.2009 3.97566 13.8941 3.91458 13.581L8.09888 12.9007C8.35444 12.8592 8.52788 12.6184 8.48634 12.3628C8.45855 12.192 8.34155 12.0582 8.19084 12.0004C8.34164 11.9427 8.45859 11.8087 8.48634 11.6378C8.52788 11.3823 8.35444 11.1415 8.09888 11.1L3.91458 10.4197C3.97566 10.1065 4.05441 9.79973 4.14998 9.5003C8.64502 10.2315 8.6467 10.2315 8.68397 10.2315C8.94286 10.2315 9.15272 10.0217 9.15272 9.7628C9.15272 9.52688 8.97839 9.33164 8.75152 9.29892C8.59238 9.27305 5.7473 8.8103 4.49372 8.60644C5.31942 6.78745 6.78731 5.31952 8.6063 4.49391C8.81016 5.74716 9.27277 8.5913 9.29878 8.75156C9.3315 8.97849 9.52673 9.15286 9.7627 9.15286C10.0216 9.15286 10.2315 8.94295 10.2315 8.68411C10.2315 8.64684 10.2314 8.6452 9.5002 4.15013C9.79964 4.05455 10.1064 3.97575 10.4195 3.91467L11.0998 8.09902C11.1372 8.32908 11.3362 8.49267 11.5619 8.49267C11.7595 8.49267 11.9314 8.37052 12.0002 8.19056C12.0578 8.3415 12.1917 8.45873 12.3627 8.48653C12.6188 8.52839 12.8591 8.35383 12.9006 8.09906L13.5809 3.91472C13.894 3.97584 14.2008 4.05459 14.5002 4.15017C13.7691 8.64525 13.769 8.64689 13.769 8.68416C13.769 8.943 13.9788 9.15291 14.2377 9.15291C14.4737 9.15291 14.6689 8.97853 14.7016 8.75161C14.7277 8.59134 15.1903 5.7472 15.3941 4.49395C17.2131 5.31956 18.681 6.78755 19.5067 8.60648C18.2531 8.81039 15.408 9.27314 15.2489 9.29897C15.022 9.33169 14.8477 9.52692 14.8477 9.76284C14.8477 10.0217 15.0576 10.2316 15.3165 10.2316C15.3538 10.2316 15.3554 10.2315 19.8504 9.50034C19.946 9.79983 20.0248 10.1066 20.0859 10.4197L15.9015 11.1C15.646 11.1415 15.4725 11.3823 15.5141 11.6379C15.5419 11.8087 15.6587 11.9427 15.8094 12.0004C15.6588 12.0582 15.5419 12.1921 15.5141 12.3629C15.4725 12.6184 15.646 12.8592 15.9015 12.9008L20.0859 13.581C20.0248 13.8942 19.946 14.201 19.8504 14.5004C15.3554 13.7693 15.3538 13.7692 15.3165 13.7692C15.0576 13.7692 14.8477 13.9791 14.8477 14.2379C14.8477 14.4738 15.022 14.6691 15.2489 14.7018C15.408 14.7277 18.2531 15.1904 19.5067 15.3943C18.681 17.2132 17.2131 18.6811 15.3942 19.5068Z" fill="#024273"/>
<path d="M20.4853 3.51469C18.2188 1.24823 15.2053 0 12 0C8.79469 0 5.78123 1.24823 3.51473 3.51469C1.24819 5.78123 0 8.79469 0 12C0 15.2053 1.24819 18.2188 3.51473 20.4853C5.78123 22.7518 8.79469 24 12 24C15.2053 24 18.2188 22.7518 20.4853 20.4853C22.7518 18.2188 24 15.2053 24 12C24 8.79469 22.7518 5.78123 20.4853 3.51469ZM12 23.0625C5.90011 23.0625 0.9375 18.0999 0.9375 12C0.9375 5.90011 5.90011 0.9375 12 0.9375C18.0999 0.9375 23.0625 5.90011 23.0625 12C23.0625 18.0999 18.0999 23.0625 12 23.0625Z" fill="#024273"/>
<path d="M12.0219 16.4707C14.4903 16.4584 16.4813 14.4473 16.4689 11.9789C16.4566 9.51054 14.4456 7.51951 11.9772 7.53185C9.50883 7.54419 7.51782 9.55523 7.53016 12.0236C7.5425 14.492 9.55352 16.4831 12.0219 16.4707Z" fill="#E95440"/>
<path d="M13.165 10.3667C12.9026 10.3667 12.6963 10.5807 12.6963 10.8354C12.6963 11.0936 12.9067 11.3041 13.165 11.3041C13.4237 11.3041 13.6337 11.0933 13.6337 10.8354C13.6337 10.5804 13.4271 10.3667 13.165 10.3667Z" fill="#024273"/>
<path d="M13.165 12.6963C12.9026 12.6963 12.6963 12.9103 12.6963 13.165C12.6963 13.4232 12.9067 13.6337 13.165 13.6337C13.4237 13.6337 13.6337 13.4229 13.6337 13.165C13.6337 12.91 13.4271 12.6963 13.165 12.6963Z" fill="#024273"/>
<path d="M10.8349 12.6963C10.5725 12.6963 10.3662 12.9103 10.3662 13.165C10.3662 13.4232 10.5766 13.6337 10.8349 13.6337C11.0936 13.6337 11.3037 13.4229 11.3036 13.165C11.3037 12.91 11.097 12.6963 10.8349 12.6963Z" fill="#024273"/>
<path d="M10.8349 10.3667C10.5725 10.3667 10.3662 10.5807 10.3662 10.8354C10.3662 11.0936 10.5766 11.3041 10.8349 11.3041C11.0936 11.3041 11.3036 11.0933 11.3036 10.8354C11.3037 10.5804 11.097 10.3667 10.8349 10.3667Z" fill="#024273"/>
</svg>
