<svg width="58" height="70" viewBox="0 0 58 70" fill="none" xmlns="http://www.w3.org/2000/svg">
<path d="M34.1673 52.609L28.9998 49.5282L24.0498 52.4794L26.3917 57.6507L24.3325 68.6329H33.9418L31.8835 57.6507L34.1673 52.609Z" fill="#E95440"/>
<path d="M43.6886 44.0235C41.6789 44.0235 37.1589 44.0235 35.1524 44.0235V39.6344C39.254 37.4424 41.9883 33.1321 41.9883 28.1837C41.9883 26.6213 41.9883 14.7298 41.9883 12.9158L45.73 9.19801C46.1908 8.73714 46.2742 8.01512 45.9127 7.4729L43.173 3.35467C42.9746 3.05689 42.6702 2.84894 42.3202 2.77525L29.2802 0.0293981C29.0944 -0.00984007 28.9034 -0.00984007 28.7175 0.0293981L15.6766 2.77498C15.3266 2.84867 15.0194 3.05676 14.821 3.35439L12.0756 7.47276C11.7139 8.01499 11.8094 8.737 12.2701 9.19788L16.0117 12.9157V28.1836C16.0117 33.132 18.7461 37.4424 22.8476 39.6343V44.0234C20.8332 44.0234 16.3175 44.0234 14.3115 44.0234C6.89639 44.0235 0.835938 50.0983 0.835938 57.5132V68.6327C0.835938 69.3876 1.47605 69.9999 2.23101 69.9999H55.7689C56.5238 69.9999 57.164 69.3876 57.164 68.6327V57.5132C57.164 50.0983 51.1035 44.0235 43.6886 44.0235V44.0235ZM39.2706 46.7579L36.7076 52.5106L31.3389 49.2992L34.3082 46.7579H39.2706ZM27.6215 9.60393C27.6215 8.84378 28.2398 8.22553 28.9999 8.22553C29.7601 8.22553 30.3783 8.84378 30.3783 9.60393C30.3783 10.3639 29.7601 10.9822 28.9999 10.9822C28.2399 10.9822 27.6215 10.3638 27.6215 9.60393ZM39.2538 13.672V16.4064H18.7461V13.672H39.2538ZM39.0749 19.1407C38.5169 20.7813 36.9905 22.0118 35.1997 22.0118H22.8003C21.0096 22.0118 19.4831 20.7813 18.9252 19.1407H39.0749ZM16.7866 5.33572L28.9999 2.76431L41.2133 5.33572L43.0275 8.03454L40.1022 10.9375H32.8744C33.0282 10.5273 33.1127 10.0648 33.1127 9.58151C33.1127 7.31376 31.2677 5.47982 28.9999 5.47982C26.7322 5.47982 24.8872 7.30815 24.8872 9.5759C24.8872 10.0592 24.9717 10.5273 25.1255 10.9375H17.8977L14.9725 8.03454L16.7866 5.33572ZM18.7461 28.1836V23.3277C19.8398 24.188 21.2625 24.746 22.8002 24.746H35.1996C36.7373 24.746 38.1599 24.188 39.2537 23.3277V28.1836C39.2537 33.7941 34.7517 38.4179 29.0473 38.4179H28.9525C23.2619 38.418 18.7461 33.7986 18.7461 28.1836V28.1836ZM32.4179 40.7222V44.8021L28.9999 47.732L25.582 44.8021V40.7222C27.7099 41.2914 30.2411 41.3046 32.4179 40.7222ZM23.6917 46.7579L26.661 49.3098L21.2923 52.4999L18.7292 46.7577H23.6917V46.7579ZM54.4296 67.2656H3.57031V57.5134C3.57031 51.6062 8.40413 46.7579 14.3115 46.7579H15.734L19.4238 55.0303C19.7669 55.7977 20.6843 56.0752 21.372 55.6651L28.9999 51.1186L36.6279 55.667C37.3204 56.08 38.2232 55.8191 38.5761 55.0301L42.2659 46.7579H43.6884C49.5956 46.7579 54.4296 51.6062 54.4296 57.5134V67.2656Z" fill="black"/>
<path d="M25.4025 33.1068C27.6014 34.713 30.6731 34.7135 32.8727 33.1068C33.4825 32.6614 33.6158 31.8059 33.1704 31.1963C32.7251 30.5865 31.8693 30.4534 31.2599 30.8986C30.0301 31.797 28.2452 31.7969 27.0157 30.8988C26.4059 30.4529 25.5506 30.5867 25.1052 31.1961C24.6596 31.8059 24.7929 32.6612 25.4025 33.1068V33.1068Z" fill="black"/>
<path d="M47.5323 55.6446H43.4141C42.6591 55.6446 42.0469 56.2568 42.0469 57.0117C42.0469 57.7667 42.6591 58.3789 43.4141 58.3789H47.5323C48.2873 58.3789 48.8995 57.7667 48.8995 57.0117C48.8995 56.2568 48.2873 55.6446 47.5323 55.6446Z" fill="black"/>
</svg>
