<svg width="56" height="54" viewBox="0 0 56 54" fill="none" xmlns="http://www.w3.org/2000/svg">
<path d="M40.5781 17.7031V37.3906H15.4219V17.7031H7.65625V41.7656H48.3438V17.7031H40.5781Z" fill="#E95440"/>
<path d="M54.9062 45.0469H53.8125V16.6094C53.8125 14.197 51.8499 12.2344 49.4375 12.2344H41.6719V1.29688C41.6719 0.692797 41.1821 0.203125 40.5781 0.203125H15.4219C14.8178 0.203125 14.3281 0.692797 14.3281 1.29688V12.2344H6.5625C4.15013 12.2344 2.1875 14.197 2.1875 16.6094V45.0469H1.09375C0.489672 45.0469 0 45.5367 0 46.1406V49.4219C0 51.8342 1.96263 53.7969 4.375 53.7969H51.625C54.0374 53.7969 56 51.8342 56 49.4219V46.1406C56 45.5367 55.5102 45.0469 54.9062 45.0469ZM16.5156 2.39062H39.4844V36.2969H16.5156V2.39062ZM4.375 16.6094C4.375 15.4032 5.35631 14.4219 6.5625 14.4219H14.3281V36.2969H13.2344C12.6304 36.2969 12.1406 36.7867 12.1406 37.3906C12.1406 37.9946 12.6304 38.4844 13.2344 38.4844H42.7656C43.3696 38.4844 43.8594 37.9946 43.8594 37.3906C43.8594 36.7867 43.3696 36.2969 42.7656 36.2969H41.6719V14.4219H49.4375C50.6437 14.4219 51.625 15.4032 51.625 16.6094V45.0469H4.375V16.6094ZM53.8125 49.4219C53.8125 50.6281 52.8312 51.6094 51.625 51.6094H4.375C3.16881 51.6094 2.1875 50.6281 2.1875 49.4219V47.2344H53.8125V49.4219Z" fill="#024273"/>
<path d="M29.7095 13.1767C28.6222 12.7924 27.4187 12.3275 26.7372 11.793C26.1881 11.3625 26.4116 9.92055 27.4334 9.61287C28.8002 9.20097 29.6844 9.94909 29.7215 9.98103L29.7096 9.9702L29.7106 9.96911C29.911 10.1537 30.1773 10.2602 30.4512 10.2602C31.0537 10.2602 31.545 9.76917 31.545 9.16641C31.545 8.87755 31.428 8.59656 31.2244 8.39312C31.2138 8.38252 31.2023 8.37333 31.1914 8.36327L31.1925 8.36206C31.1463 8.31963 30.4266 7.67212 29.2404 7.40984V6.76562C29.2404 6.16166 28.7506 5.67188 28.1466 5.67188C27.5426 5.67188 27.0529 6.16166 27.0529 6.76562V7.44955C26.9703 7.47011 26.8868 7.49286 26.8024 7.51823C25.5308 7.90137 24.5812 8.98659 24.3243 10.3504C24.0884 11.6028 24.4956 12.8152 25.3872 13.5144C26.1371 14.1026 27.1781 14.6023 28.9804 15.2393C30.2593 15.6914 30.2312 16.7292 30.1597 17.1545C30.0164 18.0061 29.3003 18.9263 28.0659 18.9345C26.888 18.9418 26.5199 18.8837 25.6106 18.2889C25.1052 17.958 24.4274 18.0999 24.0966 18.6054C23.7659 19.1109 23.9075 19.7887 24.4131 20.1194C25.4111 20.7725 26.1325 21.0139 27.0529 21.0906V21.6571C27.0529 22.2611 27.5426 22.7509 28.1466 22.7509C28.7506 22.7509 29.2404 22.2611 29.2404 21.6571V20.9613C30.9649 20.4803 32.0695 18.9889 32.3169 17.5173C32.6415 15.587 31.5936 13.8428 29.7095 13.1767V13.1767Z" fill="#024273"/>
<path d="M20.8906 27.5469H35.1094C35.7133 27.5469 36.2031 27.0571 36.2031 26.4531C36.2031 25.849 35.7133 25.3594 35.1094 25.3594H20.8906C20.2865 25.3594 19.7969 25.849 19.7969 26.4531C19.7969 27.0571 20.2865 27.5469 20.8906 27.5469Z" fill="#024273"/>
<path d="M20.8906 33.0156H35.1094C35.7133 33.0156 36.2031 32.5258 36.2031 31.9219C36.2031 31.3179 35.7133 30.8281 35.1094 30.8281H20.8906C20.2865 30.8281 19.7969 31.3179 19.7969 31.9219C19.7969 32.5258 20.2865 33.0156 20.8906 33.0156Z" fill="#024273"/>
</svg>
