<svg width="60" height="70" viewBox="0 0 60 70" fill="none" xmlns="http://www.w3.org/2000/svg">
<path d="M46.2453 22.256C47.0002 22.256 47.6124 21.6439 47.6124 20.8888V7.48467C47.6124 3.35754 44.2549 0 40.1278 0H13.1111C8.98406 0 5.62639 3.35754 5.62639 7.48467V35.6336H4.28586C2.02809 35.6336 0.191406 37.4704 0.191406 39.728V51.2066C0.191406 53.4643 2.02822 55.3011 4.28586 55.3011H5.16756L5.62639 56.2126V62.5155C5.62639 66.6426 8.98406 70.0001 13.1111 70.0001H40.1278C44.2548 70.0001 47.6124 66.6426 47.6124 62.5155V34.7121C47.6124 33.957 47.0002 33.3449 46.2453 33.3449C45.4903 33.3449 44.8781 33.957 44.8781 34.7121V62.5155C44.8781 65.1347 42.747 67.2658 40.1278 67.2658H13.1111C10.4918 67.2658 8.36076 65.1349 8.36076 62.5155V56.5187L9.80123 55.3011H20.4615C22.7192 55.3011 24.5559 53.4643 24.5559 51.2066V39.728C24.5559 37.4702 22.7192 35.6336 20.4615 35.6336H8.3609V7.48467C8.3609 4.86527 10.4918 2.73438 13.1111 2.73438H40.1278C42.747 2.73438 44.8781 4.86527 44.8781 7.48467V20.8888C44.8781 21.6439 45.4903 22.256 46.2453 22.256V22.256ZM21.8217 39.728V51.2066C21.8217 51.9565 21.2115 52.5667 20.4616 52.5667H9.30098C8.97791 52.5667 8.66523 52.6812 8.41832 52.8898L7.43395 53.7219L7.23133 53.3192C6.99904 52.8579 6.52668 52.5667 6.01016 52.5667H4.28586C3.53596 52.5667 2.92578 51.9567 2.92578 51.2066V39.728C2.92578 38.9781 3.53596 38.3679 4.28586 38.3679H20.4615C21.2115 38.3678 21.8217 38.978 21.8217 39.728Z" fill="black"/>
<path d="M24.4199 61.3934C23.6648 61.3934 23.0527 62.0055 23.0527 62.7606C23.0527 63.5157 23.6648 64.1278 24.4199 64.1278H28.8182C29.5733 64.1278 30.1854 63.5157 30.1854 62.7606C30.1854 62.0055 29.5733 61.3934 28.8182 61.3934H24.4199Z" fill="black"/>
<path d="M37.2024 7.48468C37.2024 6.72958 36.5903 6.11749 35.8352 6.11749H17.4043C16.6492 6.11749 16.0371 6.72958 16.0371 7.48468C16.0371 8.23978 16.6492 8.85187 17.4043 8.85187H35.8352C36.5902 8.85187 37.2024 8.23978 37.2024 7.48468V7.48468Z" fill="black"/>
<path d="M32.0814 14.6661H55.8078C58.0171 14.6661 59.8081 16.4571 59.8081 18.6665V35.5031C59.8081 37.7125 58.0171 39.5035 55.8078 39.5035H53.2789L51.8381 42.3659L48.4519 39.5035H32.0814C29.8721 39.5035 28.0811 37.7125 28.0811 35.5031V18.6665C28.0812 16.4571 29.8722 14.6661 32.0814 14.6661V14.6661Z" fill="#E95440"/>
<path d="M50.813 25.293H37.0771C36.3221 25.293 35.71 24.6809 35.71 23.9258C35.71 23.1707 36.3221 22.5586 37.0771 22.5586H50.813C51.568 22.5586 52.1802 23.1707 52.1802 23.9258C52.1802 24.6809 51.568 25.293 50.813 25.293Z" fill="black"/>
<path d="M50.813 31.7159H37.0771C36.3221 31.7159 35.71 31.1038 35.71 30.3487C35.71 29.5936 36.3221 28.9815 37.0771 28.9815H50.813C51.568 28.9815 52.1802 29.5936 52.1802 30.3487C52.1802 31.1038 51.568 31.7159 50.813 31.7159Z" fill="black"/>
</svg>
