<svg width="42" height="56" viewBox="0 0 42 56" fill="none" xmlns="http://www.w3.org/2000/svg">
<path d="M7.25781 14.2V37.9931C7.25781 40.604 8.8933 43.045 11.4243 44.2118L21.0002 48.6264V8.69727C17.2313 11.4261 12.7488 13.2107 7.25781 14.2V14.2Z" fill="#E95440"/>
<path d="M41.2219 8.18475C41.0117 7.97902 40.7324 7.86625 40.4332 7.87292C40.2662 7.87653 40.1007 7.87839 39.9375 7.87839C38.7098 7.87839 37.514 7.78116 36.3829 7.58931C28.0013 6.16777 24.0479 2.77747 21.8034 0.350984C21.5963 0.127313 21.3053 0 21.0004 0C20.6956 0 20.4046 0.127313 20.1975 0.350984C17.953 2.77747 13.9996 6.16777 5.61795 7.5892C4.48723 7.78105 3.29143 7.87839 2.06359 7.87839C1.9004 7.87839 1.73546 7.87664 1.56834 7.87292C1.27138 7.86636 0.989524 7.97869 0.779196 8.18442C0.568758 8.39027 0.450195 8.67202 0.450195 8.96634V37.9932C0.450195 43.2438 3.63727 48.1059 8.56965 50.3798L20.5425 55.8994C20.6877 55.9663 20.8441 55.9998 21.0004 55.9998C21.1567 55.9998 21.313 55.9663 21.4584 55.8994L33.4312 50.3798C38.3637 48.1059 41.5507 43.2438 41.5507 37.9932V8.96645C41.5507 8.67223 41.4321 8.39048 41.2219 8.18475V8.18475ZM39.3632 37.9933C39.3632 42.3933 36.6753 46.4755 32.5154 48.3933L21.0004 53.7019L9.48555 48.3933C5.32569 46.4755 2.6378 42.3933 2.6378 37.9933V10.0594C3.78777 10.0332 4.91073 9.92808 5.98391 9.74597C14.1132 8.3673 18.4242 5.22364 21.0004 2.66897C23.5767 5.22353 27.8877 8.36719 36.0172 9.74608C37.0905 9.92808 38.2137 10.0332 39.3632 10.0594V37.9933Z" fill="#024273"/>
</svg>
